<svg xmlns="http://www.w3.org/2000/svg" id="url" width="24" height="24" viewBox="0 0 24 24">
    <defs>
        <style>
            .cls-1{fill:#fff}
        </style>
    </defs>
    <path id="Path_43" d="M8.164 2.007L4.977 5.116a1.575 1.575 0 1 0 2.2 2.257l3.206-3.124A3.936 3.936 0 1 1 15.93 9.83l-3.11 3.188a1.575 1.575 0 1 0 2.255 2.2l3.1-3.174a7.1 7.1 0 0 0 0-10.021 7.268 7.268 0 0 0-10.011-.016z" class="cls-1" data-name="Path 43" transform="translate(3.758 -.017)"/>
    <path id="Path_44" d="M13.077 12.8l-3.206 3.129a3.936 3.936 0 1 1-5.551-5.583l3.11-3.189a1.575 1.575 0 1 0-2.255-2.2l-3.1 3.174a7.085 7.085 0 1 0 10.012 10.034l3.186-3.106a1.575 1.575 0 1 0-2.2-2.257z" class="cls-1" data-name="Path 44" transform="translate(.003 3.765)"/>
    <path id="Path_45" d="M3.712 14.32a1.57 1.57 0 0 0 2.225 0l8.4-8.4a1.574 1.574 0 1 0-2.226-2.228l-8.4 8.4a1.575 1.575 0 0 0 0 2.228z" class="cls-1" data-name="Path 45" transform="translate(2.982 2.958)"/>
</svg>
