<?xml version="1.0" encoding="iso-8859-1"?>
<!-- Generator: Adobe Illustrator 19.0.0, SVG Export Plug-In . SVG Version: 6.00 Build 0)  -->
<svg version="1.1" id="Capa_1" xmlns="http://www.w3.org/2000/svg" xmlns:xlink="http://www.w3.org/1999/xlink" x="0px" y="0px"
	 viewBox="0 0 52 52" style="enable-background:new 0 0 52 52;" xml:space="preserve">
<g>
	<path d="M26,0C11.664,0,0,11.663,0,26s11.664,26,26,26s26-11.663,26-26S40.336,0,26,0z M26,50C12.767,50,2,39.233,2,26
		S12.767,2,26,2s24,10.767,24,24S39.233,50,26,50z"/><svg xmlns="http://www.w3.org/2000/svg" id="plus-button" width="30" height="30.001" viewBox="0 0 30 30.001">
    <defs>
        <style>
            .cls-1{fill:#a1b3fb}
        </style>
    </defs>
    <g id="Group_18" data-name="Group 18">
        <path id="Path_50" d="M15 30a15 15 0 1 1 15-15 15.017 15.017 0 0 1-15 15zm0-28.286A13.286 13.286 0 1 0 28.285 15 13.3 13.3 0 0 0 15 1.714z" class="cls-1" data-name="Path 50"/>
    </g>
    <g id="Group_19" data-name="Group 19" transform="translate(7.989 14.112)">
        <path id="Path_51" d="M21.652 16.416H9.406a.887.887 0 1 1 0-1.775h12.246a.887.887 0 0 1 0 1.775z" class="cls-1" data-name="Path 51" transform="translate(-8.518 -14.641)"/>
    </g>
    <g id="Group_20" data-name="Group 20" transform="translate(14.112 7.989)">
        <path id="Path_52" d="M15.529 22.539a.888.888 0 0 1-.888-.887V9.406a.887.887 0 1 1 1.775 0v12.246a.886.886 0 0 1-.887.887z" class="cls-1" data-name="Path 52" transform="translate(-14.641 -8.518)"/>
    </g>
</svg>

	<path d="M38.5,25H27V14c0-0.553-0.448-1-1-1s-1,0.447-1,1v11H13.5c-0.552,0-1,0.447-1,1s0.448,1,1,1H25v12c0,0.553,0.448,1,1,1
		s1-0.447,1-1V27h11.5c0.552,0,1-0.447,1-1S39.052,25,38.5,25z"/>
</g>
<g>
</g>
<g>
</g>
<g>
</g>
<g>
</g>
<g>
</g>
<g>
</g>
<g>
</g>
<g>
</g>
<g>
</g>
<g>
</g>
<g>
</g>
<g>
</g>
<g>
</g>
<g>
</g>
<g>
</g>
</svg>
